HIERARCHY
ROOT Hips
{
  OFFSET 1.44925e-005 102.336 -0.101585
  CHANNELS 6 Xposition Yposition Zposition Zrotation Xrotation Yrotation
  JOINT LeftUpLeg
  {
    OFFSET 8.9458 -8.66707 0.101652
    CHANNELS 3 Zrotation Xrotation Yrotation
    JOINT LeftLeg
    {
      OFFSET 0 -44.4227 1.3727
      CHANNELS 3 Zrotation Xrotation Yrotation
      JOINT LeftFoot
      {
        OFFSET -0.253549 -42.0924 -1.46059
        CHANNELS 3 Zrotation Xrotation Yrotation
        JOINT LeftToes
        {
          OFFSET -0.04 -4.41509 8.4991
          CHANNELS 3 Zrotation Xrotation Yrotation
          End Site
          {
            OFFSET 0.08 -0.047448 9.77979
          }
        }
      }
    }
  }
  JOINT Spine
  {
    OFFSET 0 11.8905 0
    CHANNELS 3 Zrotation Xrotation Yrotation
    JOINT Spine1
    {
      OFFSET 0 25.6574 0.127663
      CHANNELS 3 Zrotation Xrotation Yrotation
      JOINT RightShoulder
      {
        OFFSET -8.99 -0.362252 -0.22
        CHANNELS 3 Zrotation Xrotation Yrotation
        JOINT RightArm
        {
          OFFSET -10.2827 -0.00338 0.322123
          CHANNELS 3 Zrotation Xrotation Yrotation
          JOINT RightForeArm
          {
            OFFSET -26.364 0.099144 -1.42434
            CHANNELS 3 Zrotation Xrotation Yrotation
            JOINT RightHand
            {
              OFFSET -22.0324 0.085362 1.02216
              CHANNELS 3 Zrotation Xrotation Yrotation
              End Site
              {
                OFFSET -13.3284 -0.6 1.50291
              }
            }
          }
        }
      }
      JOINT LeftShoulder1
      {
        OFFSET 8.99 -0.362252 -0.22
        CHANNELS 3 Zrotation Xrotation Yrotation
        JOINT LeftArm
        {
          OFFSET 10.2827 -0.00337999 0.322123
          CHANNELS 3 Zrotation Xrotation Yrotation
          JOINT LeftForeArm
          {
            OFFSET 26.2597 0.099144 -1.42434
            CHANNELS 3 Zrotation Xrotation Yrotation
            JOINT LeftHand
            {
              OFFSET 22.0902 0.085362 1.02216
              CHANNELS 3 Zrotation Xrotation Yrotation
              End Site
              {
                OFFSET 13.419 -0.6 1.50291
              }
            }
          }
        }
      }
      JOINT Head
      {
        OFFSET 0 8.73416 0.011341
        CHANNELS 3 Zrotation Xrotation Yrotation
        End Site
        {
          OFFSET -0.29 12.7742 2.51395
        }
      }
    }
  }
  JOINT RightUpLeg
  {
    OFFSET -8.9458 -8.66707 0.101652
    CHANNELS 3 Zrotation Xrotation Yrotation
    JOINT RightLeg
    {
      OFFSET 0 -44.4227 1.3727
      CHANNELS 3 Zrotation Xrotation Yrotation
      JOINT RightFoot
      {
        OFFSET 0.253549 -42.0924 -1.46059
        CHANNELS 3 Zrotation Xrotation Yrotation
        JOINT RightToes
        {
          OFFSET 0.04 -4.41509 8.4991
          CHANNELS 3 Zrotation Xrotation Yrotation
          End Site
          {
            OFFSET -0.08 -0.137448 9.77979
          }
        }
      }
    }
  }
}
MOTION
Frames:	21
Frame Time:	0.0333333
15.9792 98.475 2.92052 -9.83481 3.54199 -90.358 3.28925 -27.1446 -1.64655 1.2988 55.1798 12.7895 -9.63272 -13.3977 -0.425825 -1.32679e-009 8.75222e-006 -1.46288e-008 12.7945 0.353611 3.6096 -6.99427 -6.33045 4.90902 33.0563 1.60277 0.0375493 36.0352 -5.95241 28.5857 5.20932 22.7359 17.1684 -13.2845 9.08662 2.11529 -42.0643 3.40994 -3.52401 -20.7391 -20.9303 36.0167 -9.67645 47.2718 -4.73101 5.82328 9.61819 -0.917488 -6.11907 3.66865 -9.70377 7.73034 10.8405 -5.61656 3.07733 19.9147 -14.5522 3.28102 -25.4101 0.235452 0.0462048 0.000530889 0.662642 
13.8037 98.4877 2.84067 -9.47845 3.03848 -91.0141 2.55358 -26.1491 -1.32763 1.12734 46.2896 14.135 -9.34725 -11.8904 -0.294833 -1.32679e-009 8.75222e-006 -1.46288e-008 12.1218 -0.149129 3.81048 -7.25693 -6.05734 4.9402 33.0678 1.60376 0.040306 36.4922 -5.80632 28.0484 5.27131 24.1603 16.5779 -12.8723 9.11964 2.0578 -42.2551 3.44005 -3.55605 -21.4431 -21.4185 34.3663 -9.0624 45.9001 -5.641 5.82328 9.61819 -0.917488 -7.05361 3.98327 -9.1767 7.10857 12.6581 -5.85534 2.93889 18.4129 -13.5711 3.21273 -25.774 0.232936 0.0462048 0.000530889 0.662642 
11.5478 98.3621 2.81642 -9.19024 2.67685 -91.4703 1.94919 -24.9675 -0.734983 1.08529 38.7011 15.9555 -8.90571 -10.4769 -0.174036 -1.32679e-009 8.75222e-006 -1.46288e-008 11.4463 -0.550915 3.76936 -7.35295 -5.88483 4.76704 33.4203 1.61614 0.0422755 37.2452 -6.61462 27.1212 5.62634 26.7467 15.2697 -12.5211 9.13414 2.14053 -42.4501 3.47163 -3.59013 -22.3333 -21.6925 32.2365 -8.57585 44.5003 -6.49584 5.82328 9.61819 -0.917488 -8.08761 4.1476 -8.51987 6.69304 14.486 -5.99026 2.73981 17.1102 -12.8849 3.22607 -26.2093 0.24527 0.0462048 0.000530889 0.662642 
9.11875 98.0545 2.84864 -9.12239 2.42892 -91.6165 1.27215 -23.5915 -0.118661 1.09161 33.2789 17.7871 -8.4264 -10.2101 -0.143326 -1.32679e-009 8.75222e-006 -1.46288e-008 10.7091 -0.927753 3.48576 -7.18936 -5.62777 4.39988 33.9073 1.63374 0.0436697 38.5656 -8.79727 25.7734 6.50312 30.4444 13.0424 -12.437 9.132 2.21766 -42.6144 3.49662 -3.61527 -23.2611 -21.8172 29.5775 -8.33723 43.7427 -7.00831 5.82328 9.61819 -0.917488 -9.05558 4.24927 -7.71741 6.42464 16.4832 -6.27283 2.56225 16.2072 -12.3944 3.40119 -26.7753 0.28905 0.0462048 0.000530889 0.662642 
6.47566 97.5976 2.95618 -9.13848 2.28616 -91.7427 0.426494 -22.0903 -0.123615 1.11178 30.2317 19.3187 -7.04048 -10.5117 -0.129657 -1.32679e-009 8.75222e-006 -1.46288e-008 10.1459 -1.48333 3.22302 -7.05043 -5.20125 4.09387 34.3012 1.64892 0.0443871 40.2952 -12.1857 23.6789 7.72869 34.7177 10.197 -12.3614 9.15239 2.06134 -42.8078 3.51827 -3.62887 -24.1201 -21.6178 26.4245 -8.29013 43.877 -7.23507 5.82328 9.61819 -0.917488 -9.68433 4.55926 -6.93419 6.13576 18.4869 -6.7271 2.44352 15.8013 -11.6712 3.94102 -27.6302 0.409285 0.0462048 0.000530889 0.662642 
3.63892 97.0565 3.14106 -9.03492 2.21318 -92.0866 -0.46641 -20.9425 -0.883581 1.15636 29.707 20.6788 -4.20851 -10.2083 -0.0510527 -1.32679e-009 8.75222e-006 -1.46288e-008 9.65116 -2.15478 3.08677 -6.88618 -4.94634 3.90674 34.647 1.66227 0.0444402 41.6749 -15.9781 20.5919 8.97436 38.8133 7.22466 -12.1393 9.20051 1.71279 -43.0297 3.54323 -3.64451 -24.9116 -20.9224 23.0908 -8.42175 44.2104 -7.31425 5.82328 9.61819 -0.917488 -9.88097 5.18034 -6.21927 5.7042 20.1648 -7.21448 2.2531 16.0844 -10.5022 4.90237 -28.6434 0.624237 0.0462048 0.000530889 0.662642 
0.645092 96.4861 3.35819 -8.97347 1.96132 -92.4666 -1.45634 -20.4262 -1.78746 1.21765 31.7064 21.7755 -1.20172 -9.73219 0.0233711 -1.32679e-009 8.75222e-006 -1.46288e-008 8.4584 -2.57301 2.86568 -6.15125 -5.16809 3.60079 35.1833 1.68006 0.0406608 42.057 -19.6391 16.5554 10.1598 42.3665 4.2325 -11.9614 9.23978 1.416 -43.1796 3.56802 -3.67088 -25.4655 -20.4412 19.7921 -9.08633 44.3401 -6.68493 5.82328 9.61819 -0.917488 -9.66217 5.96369 -5.42375 5.04834 21.5492 -7.89052 1.73265 17.2784 -8.99215 6.04314 -29.3797 0.880631 0.0462048 0.000530889 0.662642 
-2.43801 95.9984 3.57461 -9.29715 1.23567 -92.7066 -2.87594 -19.8526 -2.5977 1.29995 34.9382 22.7553 0.139284 -10.5722 0.0516149 -1.32679e-009 8.75222e-006 -1.46288e-008 6.11676 -2.53978 2.44995 -4.79091 -5.64486 3.10349 35.9971 1.7033 0.0257084 41.2484 -22.8762 11.5974 11.2061 44.9546 1.2257 -11.8855 9.25781 1.27245 -43.2178 3.58387 -3.69669 -25.6988 -21.1651 16.2393 -10.6658 45.0542 -4.50074 5.82328 9.61819 -0.917488 -8.96219 6.92922 -4.50105 3.97707 22.8749 -8.83614 0.720521 19.4437 -7.09689 7.82741 -29.5538 1.24923 0.0462048 0.000530889 0.662642 
-5.48532 95.8103 3.81724 -9.92511 0.0886499 -93.0513 -4.85617 -18.2553 -3.57661 1.38386 37.0741 24.1514 -0.112241 -12.7746 0.0558744 -1.32679e-009 8.75222e-006 -1.46288e-008 3.13849 -2.34167 2.0549 -3.42636 -6.01327 2.61119 36.8195 1.72323 0.00246694 39.4667 -25.5122 5.70056 11.874 46.4184 -1.45528 -11.639 9.28923 1.08538 -43.1552 3.58539 -3.7096 -26.2083 -22.5942 12.1791 -12.7496 46.658 -1.25194 5.82328 9.61819 -0.917488 -7.80845 8.30825 -3.58367 2.20887 23.6648 -8.61561 -0.390155 22.9601 -5.4373 11.3809 -28.8145 1.88668 0.0462048 0.000530889 0.662642 
-8.37784 96.0389 4.10692 -10.415 -1.20852 -93.8596 -6.94892 -15.6414 -4.56359 1.44737 36.8909 25.9933 -0.574484 -14.8016 0.0389234 -1.32679e-009 8.75222e-006 -1.46288e-008 0.0465188 -2.25595 1.7692 -2.09888 -6.40551 2.10457 37.2813 1.73135 -0.0174308 36.9772 -27.7771 -0.762346 12.2906 47.5372 -3.54651 -11.1308 9.35646 0.644681 -42.8669 3.56193 -3.70784 -27.6745 -23.577 8.15787 -14.068 48.2072 0.949681 5.82328 9.61819 -0.917488 -6.50038 9.87333 -2.64208 -0.236989 22.5336 -5.41707 -0.624639 29.1699 -5.57297 16.1632 -26.0364 2.40322 0.0462048 0.000530889 0.662642 
-11.0641 96.5097 4.39617 -10.6126 -2.23127 -94.9735 -8.59862 -12.8025 -5.11648 1.48844 35.2786 27.7406 -0.666042 -15.8157 0.0328779 -1.32679e-009 8.75222e-006 -1.46288e-008 -3.39809 -1.99205 1.29118 0.0997055 -7.14095 1.24542 37.3457 1.72934 -0.0274405 33.9238 -28.8441 -6.96494 12.4136 47.9779 -4.50506 -10.674 9.42499 0.114288 -42.2443 3.50084 -3.6822 -30.0329 -24.0427 4.91069 -13.5086 48.6137 0.289261 5.82328 9.61819 -0.917488 -5.32868 10.7139 -1.36349 -2.54108 18.5793 -2.05891 -0.712131 38.9234 -6.03276 19.5709 -19.7987 1.89307 0.0462048 0.000530889 0.662642 
-13.5286 96.9634 4.63407 -10.8321 -2.81491 -95.8563 -9.61706 -10.1977 -5.1398 1.50418 33.7628 28.864 -0.761258 -16.4732 0.0252532 -1.32679e-009 8.75222e-006 -1.46288e-008 -7.25503 -1.16842 0.36806 3.59458 -7.99595 -0.109766 37.2928 1.72567 -0.0312281 30.662 -28.6276 -12.1609 12.0714 47.3547 -3.90104 -10.4575 9.44909 -0.0542853 -41.5501 3.42198 -3.62998 -32.6208 -23.4295 2.21757 -11.224 46.7598 -3.19247 5.82328 9.61819 -0.917488 -4.24457 10.1864 0.436185 -3.80011 12.8314 0.456377 -0.938724 50.231 -7.33672 20.2651 -10.9645 0.419989 0.0462048 0.000530889 0.662642 
-15.7409 97.2426 4.81015 -11.2771 -3.09788 -96.4386 -10.2861 -7.84614 -5.02005 1.51419 32.8975 29.5844 -1.06494 -17.4577 -0.00188626 -1.32679e-009 8.75222e-006 -1.46288e-008 -10.9642 0.0135364 -0.676963 7.37236 -8.26289 -1.67965 37.2148 1.7226 -0.0310569 27.6409 -27.8555 -16.3163 11.2685 45.7379 -1.99997 -10.2624 9.43192 0.274099 -41.181 3.36997 -3.58011 -34.48 -19.9489 -0.568403 -8.45202 42.0496 -8.0422 5.82328 9.61819 -0.917488 -3.07028 8.8275 2.49131 -4.06121 6.79408 2.31534 -1.29071 60.5722 -8.82114 19.207 -4.61643 -0.668452 0.0462048 0.000530889 0.662642 
-17.8633 97.4916 4.95737 -11.7766 -2.93122 -96.8811 -10.4957 -5.42156 -4.95981 1.52038 32.0101 30.1776 -1.40058 -18.5889 -0.0384634 -1.32679e-009 8.75222e-006 -1.46288e-008 -13.4273 0.89728 -1.57908 10.3411 -7.88417 -3.11372 36.9264 1.71285 -0.0307307 25.157 -27.3216 -19.8437 10.4008 43.7373 0.0815551 -9.93983 9.42124 0.613803 -41.0159 3.33828 -3.53969 -35.0178 -13.2326 -3.50786 -6.09517 35.4832 -12.8133 5.82328 9.61819 -0.917488 -1.87317 7.85403 4.33719 -3.51345 1.26287 3.70857 -1.87495 68.5722 -9.62624 17.7093 -4.07243 -0.714005 0.0462048 0.000530889 0.662642 
-20.0069 97.8039 5.08983 -12.0961 -2.3881 -97.287 -10.1878 -2.94341 -4.61832 1.50951 30.7657 30.4465 -1.77673 -19.5853 -0.0852386 -1.32679e-009 8.75222e-006 -1.46288e-008 -14.5332 1.2842 -2.30547 12.2644 -7.44793 -4.23349 36.4453 1.69449 -0.0332235 23.1384 -27.2719 -23.0037 9.83232 41.8964 1.33716 -9.71671 9.44571 0.445276 -40.5178 3.27204 -3.47815 -34.7004 -6.27071 -6.4118 -4.3293 29.6992 -16.5826 5.82328 9.61819 -0.917488 -0.775454 7.9157 5.71656 -2.47501 -3.88827 4.75127 -2.69332 73.8707 -10.5489 16.4517 -6.99864 -0.263846 0.0462048 0.000530889 0.662642 
-22.1434 98.1246 5.2072 -12.2533 -1.76817 -97.6722 -9.66024 -0.550686 -3.77056 1.5034 29.3487 30.2178 -2.08852 -20.4812 -0.129776 -1.32679e-009 8.75222e-006 -1.46288e-008 -14.8512 1.40821 -2.8568 13.3685 -7.24479 -5.01415 36.0617 1.67657 -0.0432115 21.364 -27.5318 -25.7237 9.59226 40.4187 1.62227 -9.731 9.48897 -0.137032 -39.5112 3.15327 -3.38163 -34.5151 -2.18172 -9.29475 -3.07421 26.4303 -19.0668 5.82328 9.61819 -0.917488 0.254964 8.67429 6.66182 -1.31094 -8.85418 5.5728 -3.5511 76.5763 -12.2743 15.2981 -9.59312 0.0784388 0.0462048 0.000530889 0.662642 
-24.2589 98.4312 5.32004 -12.3773 -1.12384 -97.9454 -9.10094 1.90211 -2.63357 1.5896 27.7004 29.6015 -1.95996 -21.2755 -0.124141 -1.32679e-009 8.75222e-006 -1.46288e-008 -14.6623 1.40802 -3.30009 14.047 -7.02921 -5.55493 35.9168 1.66629 -0.0552442 19.8092 -27.9313 -27.7958 9.48463 39.4548 1.40775 -9.77253 9.5238 -0.623423 -38.4688 3.03233 -3.2804 -34.6569 -0.885855 -12.0689 -2.10632 24.879 -20.8556 5.82328 9.61819 -0.917488 1.17903 9.4167 7.29515 -0.122603 -13.3289 6.19093 -3.94469 76.7694 -14.4559 14.0077 -11.2235 0.24784 0.0462048 0.000530889 0.662642 
-26.3582 98.6839 5.40828 -12.508 -0.429691 -98.0067 -8.49338 4.41985 -1.49322 1.72628 25.8963 28.7589 -1.51514 -21.9945 -0.0753633 -1.32679e-009 8.75222e-006 -1.46288e-008 -14.32 1.3413 -3.71571 14.8075 -6.60586 -6.03748 35.8706 1.66211 -0.062248 18.6235 -28.385 -29.1578 9.33129 38.9957 1.2263 -9.69885 9.53708 -0.758797 -37.9161 2.96815 -3.22383 -34.7197 -1.2275 -14.4282 -1.19375 24.2027 -22.7936 5.82328 9.61819 -0.917488 1.85645 9.72561 7.68536 0.962499 -16.9065 6.45843 -3.58743 74.4669 -16.5198 13.2548 -13.01 0.425014 0.0462048 0.000530889 0.662642 
-28.447 98.8263 5.43445 -12.6218 0.151124 -97.7764 -7.86905 6.79437 -0.344331 1.7983 24.2853 27.573 -1.30493 -22.7755 -0.0528711 -1.32679e-009 8.75222e-006 -1.46288e-008 -14.2776 1.37375 -4.12987 15.8674 -6.21595 -6.54438 35.8181 1.66087 -0.0622367 17.9286 -28.7534 -29.9794 9.10399 38.5953 1.40363 -9.62468 9.5397 -0.754134 -37.8545 2.96126 -3.21791 -34.7373 -2.94477 -16.2191 -0.329628 24.9078 -25.0996 5.82328 9.61819 -0.917488 2.34824 9.6018 7.82734 1.62145 -19.6034 6.15314 -2.89743 70.0643 -18.04 13.273 -14.4716 0.589458 0.0462048 0.000530889 0.662642 
-30.5296 98.8589 5.41526 -12.6498 0.462591 -97.2783 -7.39479 8.89137 0.624625 1.77377 22.9936 26.2603 -1.40235 -23.6006 -0.0714115 -1.32679e-009 8.75222e-006 -1.46288e-008 -14.4151 1.54234 -4.49886 16.806 -6.09051 -6.96277 35.8369 1.66112 -0.0618549 17.7864 -28.9424 -30.4084 8.90314 37.8783 1.89485 -9.62681 9.54665 -0.848618 -37.9672 2.9743 -3.22953 -34.7675 -4.5805 -17.6317 0.451193 26.0694 -27.4064 5.82328 9.61819 -0.917488 2.88156 9.21256 7.65604 1.70439 -21.678 5.25127 -2.30116 64.2927 -19.0169 13.155 -14.905 0.63053 0.0462048 0.000530889 0.662642 
-32.6342 98.7866 5.39925 -12.492 0.552713 -96.6866 -7.1821 10.6657 1.17592 1.76699 21.9557 25.254 -1.55021 -24.4391 -0.0994126 -1.32679e-009 8.75222e-006 -1.46288e-008 -14.2208 1.54447 -4.75753 17.0782 -6.02965 -7.17046 35.9709 1.66238 -0.0686884 18.2064 -29.104 -30.3545 8.80235 37.193 2.3236 -9.63543 9.55252 -0.931909 -38.0721 2.98563 -3.23844 -34.8175 -5.25622 -18.8564 1.11682 26.8506 -29.3506 5.82328 9.61819 -0.917488 3.4738 8.64849 7.13195 1.41461 -23.2068 4.04794 -1.87531 57.6766 -19.4652 12.7667 -15.1715 0.634245 0.0462048 0.000530889 0.662642 
